<svg fill="none" height="24" viewBox="0 0 24 24" width="24" xmlns="http://www.w3.org/2000/svg"><path d="m5.69989 8.19901.81004 6.99989c.10224 1.0224.96257 1.801 1.99007 1.801h7.9362c.8772 0 1.6521-.5717 1.9109-1.4098l1.6429-6.99995c.3973-1.28652-.5645-2.59015-1.9109-2.59015h-10.38913c-1.18325 0-2.10781 1.02164-1.99008 2.19901zm0 0-.71996-5.19901h-2m3.56402 16.9999c.301 0 .544.244.544.544 0 .301-.243.545-.544.545s-.544-.244-.544-.545c0-.3.243-.544.544-.544zm11.28025 0c.301 0 .545.244.545.544 0 .301-.244.545-.545.545s-.544-.244-.544-.545c0-.3.243-.544.544-.544z" stroke="#fff" stroke-linecap="round" stroke-linejoin="round" stroke-width="2"/></svg>